<svg version="1.1" id="Layer_1" xmlns="http://www.w3.org/2000/svg" xmlns:xlink="http://www.w3.org/1999/xlink" x="0px" y="0px"
	 width="100%" viewBox="0 0 500 500" enable-background="new 0 0 500 500" xml:space="preserve">
<path fill="#ffffff" opacity="1.000000" stroke="none" 
	d="
M331.000000,501.000000 
	C220.666687,501.000000 110.833389,501.000000 1.000059,501.000000 
	C1.000039,334.333405 1.000039,167.666794 1.000020,1.000148 
	C167.666565,1.000099 334.333130,1.000099 500.999756,1.000049 
	C500.999847,167.666519 500.999847,334.333038 500.999939,500.999786 
	C444.500000,501.000000 388.000000,501.000000 331.000000,501.000000 
M289.998962,321.995636 
	C289.998962,321.995636 289.991455,321.953430 289.655304,322.423004 
	C289.383972,322.932526 289.112610,323.442078 288.614319,324.595764 
	C288.401978,325.712982 288.189636,326.830200 287.739655,328.405060 
	C287.559235,328.878967 287.378815,329.352905 287.136902,330.578613 
	C287.085999,331.331177 287.035065,332.083740 286.733765,333.352844 
	C286.821442,334.250366 286.909119,335.147919 287.476654,336.142761 
	C288.314758,335.774841 289.152863,335.406921 290.929352,335.028320 
	C308.617523,335.050690 326.305725,335.073029 344.481232,335.264252 
	C345.322388,335.191132 346.163513,335.118011 347.668457,335.066315 
	C348.111084,335.078064 348.553680,335.089783 349.780670,335.336243 
	C364.236053,335.531555 378.691101,335.781525 393.147156,335.876862 
	C396.104492,335.896393 399.065643,335.336273 402.510284,335.030731 
	C402.510284,335.030731 402.994568,335.063080 403.653961,335.358368 
	C405.772827,335.280823 407.891693,335.203308 410.910645,335.125702 
	C413.613464,335.129791 416.316315,335.133881 419.255585,335.199493 
	C419.255585,335.199493 419.620422,335.211884 419.620422,335.211884 
	C419.620422,335.211884 419.979065,335.143829 420.915985,335.142944 
	C427.924469,335.318634 434.932983,335.494354 442.293243,336.171844 
	C442.907684,336.677032 443.522125,337.182220 444.615662,337.279449 
	C445.081787,332.753571 445.932434,328.229279 445.950958,323.701569 
	C446.063293,296.294983 446.032104,268.887360 445.883118,241.480942 
	C445.871216,239.288849 444.608093,237.103546 443.033539,234.936584 
	C436.387909,234.705750 429.741699,234.265335 423.096771,234.283707 
	C403.791107,234.337051 384.486115,234.602463 365.180481,234.712387 
	C361.861115,234.731277 360.220245,236.018875 359.238281,239.363480 
	C357.413788,245.577728 354.932129,251.598557 352.738220,257.704987 
	C351.343384,261.587402 349.025787,262.883087 344.661682,262.067719 
	C336.853973,260.608948 328.899963,259.933228 320.137726,258.871918 
	C312.100647,257.904327 304.063599,256.936768 295.877899,255.223236 
	C293.080200,247.335434 292.149261,238.707932 287.346100,231.614792 
	C286.838409,231.621445 286.330750,231.628098 285.823059,231.634750 
	C283.874664,238.082138 281.926239,244.529526 279.719696,251.440338 
	C278.502350,251.556473 277.284973,251.672607 275.886719,251.180954 
	C275.563324,249.044250 275.314026,246.893280 274.905518,244.772964 
	C267.946503,208.649826 261.001556,172.523849 253.921249,136.424454 
	C253.420563,133.871582 251.890396,131.520645 250.838928,129.075806 
	C250.323257,129.144150 249.807587,129.212479 249.291931,129.280823 
	C248.570282,131.209610 247.506165,133.082245 247.179352,135.075760 
	C243.386154,158.213440 239.614716,181.355484 236.023560,204.525223 
	C233.525543,220.642166 231.315659,236.803757 228.996429,252.980865 
	C228.996429,252.980865 228.959183,252.974014 228.570587,252.456970 
	C226.383835,245.172974 224.227615,237.879623 221.997070,230.609070 
	C220.927322,227.122162 219.716919,223.678391 218.570221,220.215088 
	C217.885330,220.223495 217.200455,220.231918 216.515564,220.240341 
	C212.247025,231.253799 208.678177,242.507462 205.472687,254.485901 
	C203.655640,254.981384 201.838593,255.476852 199.828461,255.205109 
	C199.928223,251.959839 199.717636,248.667145 200.204437,245.481018 
	C200.847275,241.273590 202.036880,237.149673 203.214035,232.342560 
	C203.456848,231.230667 203.699661,230.118759 204.192917,228.494080 
	C204.446640,227.982941 204.700363,227.471802 204.991104,226.173599 
	C205.008453,225.120621 205.025803,224.067627 205.287735,222.431046 
	C205.536346,221.625900 205.784943,220.820755 206.351593,219.349457 
	C208.731033,210.789688 211.493912,202.310608 213.319611,193.634308 
	C214.165283,189.615417 213.185120,185.212326 212.903610,180.264359 
	C211.796310,178.489548 210.689026,176.714752 209.651978,174.587494 
	C209.651978,174.587494 209.768234,174.247437 209.747787,173.558609 
	C209.506531,172.697067 209.265274,171.835526 208.926407,170.177353 
	C208.317505,167.588745 207.592194,165.021042 207.122589,162.407394 
	C205.942703,155.840454 201.693451,153.193344 195.448090,153.238419 
	C179.142151,153.356064 162.836472,153.710083 146.531525,153.665115 
	C140.340240,153.648056 137.560532,156.644348 135.420258,162.143707 
	C118.030045,206.827042 100.353653,251.398911 82.817375,296.025543 
	C78.192505,307.795013 73.743492,319.633728 69.232872,331.447906 
	C68.031372,334.594879 68.532799,336.672882 72.511375,336.694794 
	C81.993347,336.747040 91.476311,336.995422 100.955658,336.886169 
	C103.320595,336.858917 105.673363,335.776123 108.678459,335.147949 
	C109.110039,335.145996 109.541618,335.144043 110.533333,335.598755 
	C119.455498,339.288635 122.917953,337.905212 126.081390,329.386810 
	C130.074066,318.635437 134.206345,307.933289 138.016937,297.117798 
	C141.262802,287.905121 144.138519,278.562042 147.541992,269.181183 
	C147.541992,269.181183 147.901489,269.069916 148.856247,269.104767 
	C162.555161,269.063751 176.254074,269.022736 190.542496,269.080078 
	C190.937592,269.125000 191.332687,269.169922 191.759766,269.343658 
	C191.759766,269.343658 191.796143,269.471344 191.980087,270.151672 
	C194.720383,278.358948 197.318314,286.618591 200.305649,294.734955 
	C201.012222,296.654602 203.027298,298.092651 204.440460,299.752228 
	C205.562881,298.015137 207.108017,296.416992 207.732712,294.516296 
	C210.118469,287.257507 212.184341,279.894073 214.430374,272.588379 
	C214.816986,271.330902 215.498871,270.164185 216.044342,268.955536 
	C216.497299,268.987122 216.950256,269.018677 217.403198,269.050262 
	C223.061432,286.501801 226.109756,304.808411 233.873062,321.843079 
	C239.498199,307.130951 239.454849,291.616943 242.139496,276.618225 
	C244.848373,261.484161 246.778488,246.210709 249.049789,230.998337 
	C249.554504,230.958176 250.059219,230.918015 250.563919,230.877838 
	C251.112167,232.151001 251.838425,233.378555 252.178345,234.705093 
	C253.789520,240.992813 255.458145,247.272873 256.809326,253.618896 
	C261.695129,276.566223 266.409149,299.550232 271.333557,322.489136 
	C272.018494,325.679657 273.518311,328.695221 274.640900,331.791748 
	C275.199738,331.714172 275.758545,331.636566 276.317352,331.558960 
	C277.713013,327.017670 279.288940,322.522797 280.471924,317.926758 
	C284.741882,301.337433 288.879578,284.714111 293.987885,268.052032 
	C309.291565,267.666077 324.595245,267.280121 340.749969,266.852478 
	C350.698914,266.747955 360.648529,266.683319 370.596619,266.526276 
	C378.568115,266.400421 386.538086,266.174225 394.508148,265.969055 
	C398.417969,265.868378 401.352753,267.153259 402.405304,272.139893 
	C402.364410,274.409607 402.323517,276.679352 402.115967,279.353058 
	C402.161835,279.916534 402.207703,280.479980 402.280579,281.680573 
	C402.262787,282.105194 402.244995,282.529785 401.955872,283.515289 
	C400.035248,293.298370 399.577759,293.620605 389.171295,294.130219 
	C385.426910,294.313599 381.698669,294.827850 377.232574,295.235016 
	C376.501282,295.220154 375.770020,295.205292 374.633484,295.046722 
	C374.076263,295.104248 373.519012,295.161774 372.045532,295.260254 
	C366.063446,295.361542 360.081329,295.462830 353.917053,295.445831 
	C353.578064,295.483643 353.239105,295.521454 352.288757,295.553925 
	C351.881195,295.550629 351.473602,295.547333 350.469727,295.171631 
	C338.322388,292.941376 326.660645,289.340332 315.746338,283.406189 
	C304.463715,277.271820 303.762756,274.145935 298.793762,291.802917 
	C297.850220,295.542969 296.906708,299.283020 296.000214,303.003052 
	C296.000214,303.003052 296.001343,302.960968 295.671417,303.454285 
	C295.436005,304.000214 295.200562,304.546143 294.958069,305.709869 
	C294.971039,306.121552 294.984039,306.533203 294.517029,307.456390 
	C293.283203,311.314117 292.049377,315.171814 290.584045,319.532715 
	C290.403442,320.055878 290.222839,320.579010 290.006012,321.566620 
	C290.006012,321.566620 289.975372,322.031464 289.998962,321.995636 
M302.367828,162.057678 
	C301.562958,162.370102 300.758087,162.682526 299.994507,162.988617 
	C299.994507,162.988617 300.016632,162.953186 299.417206,163.145645 
	C298.602448,163.757553 297.787689,164.369461 296.984375,165.018372 
	C296.984375,165.018372 297.002136,164.984299 296.535309,165.285339 
	C296.253662,165.529846 295.972046,165.774338 295.018829,166.147202 
	C291.646484,168.230164 288.268921,170.304718 284.903381,172.398560 
	C281.790436,174.335205 280.915955,177.057343 281.925659,180.553665 
	C286.674622,196.997375 291.263245,213.489090 296.230286,229.866287 
	C297.008789,232.433105 299.440491,234.498535 301.107758,236.795822 
	C302.799683,234.655563 305.057495,232.757492 306.093475,230.336563 
	C314.009094,211.839478 327.214478,201.340256 348.923859,201.890381 
	C365.782501,201.910553 382.641876,202.012253 399.498993,201.862000 
	C401.993317,201.839783 404.477051,200.626999 407.492981,199.968307 
	C407.668762,199.966690 407.844543,199.965088 408.656921,200.373077 
	C416.015961,200.615128 423.385834,201.143280 430.725098,200.864670 
	C432.244507,200.806992 434.307281,197.984268 434.999023,196.037689 
	C438.836823,185.238510 442.523956,174.376221 445.880615,163.418472 
	C448.878937,153.630524 448.369843,153.145126 438.154053,153.053513 
	C422.889191,152.916595 407.623657,152.856049 392.358917,152.710205 
	C377.914825,152.572235 363.471375,152.366196 348.311615,152.188736 
	C347.834320,152.181458 347.357056,152.174164 346.606995,152.438522 
	C346.422394,152.618851 346.237640,152.799057 345.110779,152.990158 
	C336.079346,153.973999 327.047913,154.957840 317.376160,156.056580 
	C316.574463,156.367325 315.772736,156.678070 315.009796,157.010559 
	C315.009796,157.010559 315.011688,156.966171 314.220398,156.978027 
	C311.469086,157.978149 308.717743,158.978287 306.005280,160.007645 
	C306.005280,160.007645 306.003265,159.959061 305.399261,160.130463 
	C304.586975,160.749313 303.774719,161.368179 302.996765,162.012268 
	C302.996765,162.012268 303.014099,161.973373 302.367828,162.057678 
M261.484253,326.236542 
	C262.046082,324.612305 263.394653,322.790405 263.044220,321.395355 
	C260.449280,311.065399 257.547760,300.811432 254.649338,290.559967 
	C254.292404,289.297577 253.385086,288.190796 252.389648,286.391663 
	C251.324493,288.018219 250.576477,288.744812 250.322693,289.615448 
	C248.648132,295.359924 246.682922,301.065887 245.655914,306.932098 
	C245.190384,309.591309 245.729996,313.468872 247.430161,315.255127 
	C251.376816,319.401642 256.306580,322.612457 261.484253,326.236542 
z"/>
<path fill="#2E2D28" opacity="1.000000" stroke="none" 
	d="
M109.973198,335.142090 
	C109.541618,335.144043 109.110039,335.145996 107.887512,335.104797 
	C97.271790,334.800446 87.447983,334.490021 77.621864,334.297546 
	C72.206757,334.191467 71.990799,333.887482 73.919670,328.955414 
	C86.474426,296.853149 98.962799,264.724915 111.530296,232.627640 
	C120.580956,209.512329 129.799805,186.462479 138.752869,163.309662 
	C140.519424,158.741318 143.228287,156.859619 148.112076,156.920029 
	C163.776276,157.113724 179.445450,157.131317 195.109741,156.954941 
	C199.761368,156.902573 202.046356,158.866165 203.402710,163.122681 
	C204.533829,166.672348 206.406555,169.985718 208.173340,173.518707 
	C208.853302,173.838257 209.310776,174.042847 209.768234,174.247437 
	C209.768234,174.247437 209.651978,174.587494 209.447540,174.962524 
	C209.556976,177.220596 209.870880,179.103653 210.208923,181.395447 
	C209.838562,186.851242 209.858047,191.974274 208.948959,196.926880 
	C207.701538,203.722580 205.750107,210.389069 204.082611,217.316711 
	C204.064835,217.522507 204.051865,217.935394 203.995239,218.269333 
	C203.874008,219.050171 203.809387,219.497086 203.610687,220.232544 
	C203.251968,221.340393 203.027374,222.159698 202.693710,223.227234 
	C202.431854,223.996780 202.279068,224.518097 202.083008,225.423157 
	C201.982605,226.830780 201.925491,227.854675 201.610596,229.125458 
	C199.612656,234.194443 197.872528,239.016510 196.132385,243.838577 
	C195.635010,243.819794 195.137634,243.801010 194.640259,243.782227 
	C193.807358,242.075226 192.842590,240.419006 192.162613,238.653137 
	C187.142715,225.616623 182.289810,212.513962 177.081284,199.553909 
	C176.288940,197.582367 173.935654,194.971985 172.294937,194.965271 
	C170.668671,194.958633 168.363144,197.588638 167.534790,199.558197 
	C165.745331,203.812927 164.710983,208.385269 163.151184,213.046844 
	C161.994858,215.185349 160.861053,217.035675 160.149704,219.036224 
	C157.434952,226.670746 154.636444,234.287216 152.292480,242.038406 
	C150.205780,248.938782 146.310242,252.736160 138.740387,252.329208 
	C135.462677,252.152985 132.145462,252.711700 128.435364,252.943619 
	C126.371651,253.117401 124.495338,252.853729 123.125145,253.565018 
	C121.579155,254.367584 120.488464,256.047180 119.199753,257.345337 
	C120.661560,258.180481 122.071655,259.605896 123.594948,259.739349 
	C128.047516,260.129486 132.545258,260.004303 137.476685,260.066650 
	C140.940613,260.011566 143.953156,259.970917 147.437012,259.954468 
	C158.281570,259.969879 168.654800,259.961090 179.492203,259.965088 
	C184.961945,259.977142 189.967529,259.976440 195.424835,259.996155 
	C199.747131,259.803802 203.990555,261.131104 207.253662,257.071503 
	C210.672745,248.525497 213.829422,240.233490 216.986084,231.941467 
	C217.602997,232.029831 218.219894,232.118195 218.836792,232.206558 
	C219.472748,234.519592 220.129715,236.827072 220.739960,239.146881 
	C221.797958,243.168747 222.497696,247.325348 223.985153,251.179413 
	C224.960419,253.706421 227.057190,255.800598 228.651672,258.088623 
	C230.102570,255.451569 232.353043,252.960693 232.866486,250.152237 
	C235.142838,237.700882 236.974747,225.166580 238.866898,212.647079 
	C242.078217,191.399292 245.187363,170.136047 248.423035,148.892029 
	C248.738892,146.818375 249.638397,144.833603 250.266983,142.807587 
	C251.909531,143.712372 252.393280,144.369873 252.535980,145.094513 
	C256.364929,164.536301 260.152191,183.986282 263.960632,203.432114 
	C267.321075,220.590530 270.698578,237.745590 274.068115,255.297791 
	C274.773376,257.389984 275.479034,259.086517 276.184692,260.783081 
	C278.156616,259.852386 280.808960,259.410950 281.922089,257.862762 
	C283.210663,256.070618 283.145264,253.304977 283.751892,250.593536 
	C284.718262,248.081909 285.600372,245.938736 286.482483,243.795547 
	C287.142822,243.797348 287.803162,243.799164 288.463470,243.800964 
	C289.992920,248.189453 291.522339,252.577942 293.090515,257.315674 
	C292.179688,261.140350 291.230164,264.615723 290.169189,268.455994 
	C285.532074,285.712555 281.006378,302.604248 276.480713,319.495911 
	C275.972290,319.508698 275.463898,319.521454 274.955475,319.534241 
	C274.251129,317.100372 273.400238,314.698273 272.864838,312.227783 
	C266.498260,282.850525 260.178650,253.463089 253.778870,223.795395 
	C252.468719,222.669739 251.226440,221.826981 249.992218,220.991486 
	C250.000305,220.998734 250.014816,221.014786 249.940125,220.793091 
	C245.691528,218.997650 247.897842,222.812469 246.865356,224.364380 
	C242.835617,250.222458 238.933182,275.706543 234.981354,301.182922 
	C234.641129,303.376373 233.973953,305.519135 233.458664,307.685425 
	C232.882507,307.634216 232.306351,307.583038 231.730194,307.531830 
	C231.129333,305.527435 230.487015,303.534363 229.934662,301.516663 
	C227.344345,292.054321 224.977539,282.524109 222.094437,273.152405 
	C221.110458,269.953918 221.148483,264.479095 216.617981,265.027222 
	C214.426804,265.292328 212.333481,270.237152 211.062668,273.410309 
	C208.623276,279.501404 206.801971,285.840088 204.724274,292.076050 
	C202.730957,290.568756 201.840805,289.050781 201.275970,287.420135 
	C199.805725,283.175690 198.819824,278.724396 196.952408,274.672821 
	C195.992142,272.589417 193.562042,271.183441 191.796143,269.471344 
	C191.796143,269.471344 191.759766,269.343658 191.627335,268.929291 
	C189.674545,267.672241 187.871445,266.144592 186.031021,266.098236 
	C174.228134,265.800812 162.414505,265.684540 150.611282,265.894897 
	C148.710999,265.928772 146.845139,267.895050 144.772461,269.270081 
	C137.237854,289.223389 129.792618,308.837830 122.629128,328.554596 
	C121.040657,332.926697 118.781006,335.356201 113.957092,334.914978 
	C112.647018,334.795105 111.302116,335.055969 109.973198,335.142090 
z"/>
<path fill="#2E2E28" opacity="1.000000" stroke="none" 
	d="
M351.066040,295.544037 
	C351.473602,295.547333 351.881195,295.550629 352.893982,295.572479 
	C353.699188,295.582062 353.899200,295.573090 354.099243,295.564148 
	C360.081329,295.462830 366.063446,295.361542 372.709137,295.289642 
	C373.928070,295.276154 374.483398,295.233307 375.038727,295.190460 
	C375.770020,295.205292 376.501282,295.220154 377.995972,295.317535 
	C383.379333,295.564362 387.999512,295.872284 392.619171,295.864105 
	C403.322388,295.845184 404.504730,294.350281 402.500305,283.907867 
	C402.438232,283.584503 402.319519,283.271973 402.227234,282.954407 
	C402.244995,282.529785 402.262787,282.105194 402.323669,281.156372 
	C402.338745,280.071167 402.310699,279.510101 402.282654,278.949066 
	C402.323517,276.679352 402.364410,274.409607 402.562256,271.442719 
	C403.799774,265.629059 402.509064,264.200928 396.190918,264.018219 
	C383.878632,263.662201 371.563843,263.379364 359.248474,263.154022 
	C355.535706,263.086090 354.523987,261.577972 355.807678,258.113434 
	C357.541107,253.435181 359.367340,248.760544 360.627533,243.946594 
	C361.808350,239.435684 364.320892,237.841049 368.869843,237.869141 
	C391.184662,238.007080 413.500824,237.905594 435.816406,237.953049 
	C442.142090,237.966492 442.912445,238.829819 442.816620,245.336304 
	C442.632996,257.812622 442.303284,270.287323 442.191467,282.764069 
	C442.033386,300.398712 442.017883,318.034668 441.941467,335.670044 
	C434.932983,335.494354 427.924469,335.318634 420.208008,335.128571 
	C419.500061,335.114197 419.019135,335.138000 419.019135,335.138000 
	C416.316315,335.133881 413.613464,335.129791 410.125732,334.981873 
	C407.225403,334.913055 405.109985,334.988068 402.994568,335.063080 
	C402.994568,335.063080 402.510284,335.030731 401.843750,334.980774 
	C385.074585,334.694611 368.972260,334.437042 352.868988,334.262604 
	C351.581268,334.248688 350.287354,334.808380 348.996307,335.101501 
	C348.553680,335.089783 348.111084,335.078064 347.091248,334.972900 
	C345.673981,334.951447 344.833923,335.023438 343.993896,335.095398 
	C326.305725,335.073029 308.617523,335.050690 290.470795,334.613159 
	C290.446594,331.914001 290.688263,329.572754 291.347107,327.355438 
	C295.139252,314.592560 299.028931,301.858643 302.888092,289.115692 
	C304.772491,282.893372 306.413452,282.241058 312.205750,285.432983 
	C313.079895,285.914703 313.896088,286.500366 314.757690,287.006226 
	C325.979675,293.594391 337.954010,296.990326 351.066040,295.544037 
z"/>
<path fill="#110F0E" opacity="1.000000" stroke="none" 
	d="
M253.846741,224.078308 
	C260.178650,253.463089 266.498260,282.850525 272.864838,312.227783 
	C273.400238,314.698273 274.251129,317.100372 274.955475,319.534241 
	C275.463898,319.521454 275.972290,319.508698 276.480713,319.495911 
	C281.006378,302.604248 285.532074,285.712555 290.392822,268.415771 
	C291.507660,268.041656 292.287415,268.072632 293.067200,268.103607 
	C288.879578,284.714111 284.741882,301.337433 280.471924,317.926758 
	C279.288940,322.522797 277.713013,327.017670 276.317352,331.558960 
	C275.758545,331.636566 275.199738,331.714172 274.640900,331.791748 
	C273.518311,328.695221 272.018494,325.679657 271.333557,322.489136 
	C266.409149,299.550232 261.695129,276.566223 256.809326,253.618896 
	C255.458145,247.272873 253.789520,240.992813 252.178345,234.705093 
	C251.838425,233.378555 251.112167,232.151001 250.563919,230.877838 
	C250.059219,230.918015 249.554504,230.958176 249.049789,230.998337 
	C246.778488,246.210709 244.848373,261.484161 242.139496,276.618225 
	C239.454849,291.616943 239.498199,307.130951 233.873062,321.843079 
	C226.109756,304.808411 223.061432,286.501801 217.403198,269.050262 
	C216.950256,269.018677 216.497299,268.987122 216.044342,268.955536 
	C215.498871,270.164185 214.816986,271.330902 214.430374,272.588379 
	C212.184341,279.894073 210.118469,287.257507 207.732712,294.516296 
	C207.108017,296.416992 205.562881,298.015137 204.440460,299.752228 
	C203.027298,298.092651 201.012222,296.654602 200.305649,294.734955 
	C197.318314,286.618591 194.720383,278.358948 191.888123,269.811523 
	C193.562042,271.183441 195.992142,272.589417 196.952408,274.672821 
	C198.819824,278.724396 199.805725,283.175690 201.275970,287.420135 
	C201.840805,289.050781 202.730957,290.568756 204.724274,292.076050 
	C206.801971,285.840088 208.623276,279.501404 211.062668,273.410309 
	C212.333481,270.237152 214.426804,265.292328 216.617981,265.027222 
	C221.148483,264.479095 221.110458,269.953918 222.094437,273.152405 
	C224.977539,282.524109 227.344345,292.054321 229.934662,301.516663 
	C230.487015,303.534363 231.129333,305.527435 231.730194,307.531830 
	C232.306351,307.583038 232.882507,307.634216 233.458664,307.685425 
	C233.973953,305.519135 234.641129,303.376373 234.981354,301.182922 
	C238.933182,275.706543 242.835617,250.222458 247.298874,224.360367 
	C249.846649,224.012970 251.846695,224.045639 253.846741,224.078308 
z"/>
<path fill="#110F0E" opacity="1.000000" stroke="none" 
	d="
M274.068481,254.902130 
	C270.698578,237.745590 267.321075,220.590530 263.960632,203.432114 
	C260.152191,183.986282 256.364929,164.536301 252.535980,145.094513 
	C252.393280,144.369873 251.909531,143.712372 250.266983,142.807587 
	C249.638397,144.833603 248.738892,146.818375 248.423035,148.892029 
	C245.187363,170.136047 242.078217,191.399292 238.866898,212.647079 
	C236.974747,225.166580 235.142838,237.700882 232.866486,250.152237 
	C232.353043,252.960693 230.102570,255.451569 228.651672,258.088623 
	C227.057190,255.800598 224.960419,253.706421 223.985153,251.179413 
	C222.497696,247.325348 221.797958,243.168747 220.739960,239.146881 
	C220.129715,236.827072 219.472748,234.519592 218.836792,232.206558 
	C218.219894,232.118195 217.602997,232.029831 216.986084,231.941467 
	C213.829422,240.233490 210.672745,248.525497 207.197601,256.727631 
	C206.601486,255.786087 206.323853,254.934433 206.046204,254.082764 
	C208.678177,242.507462 212.247025,231.253799 216.515564,220.240341 
	C217.200455,220.231918 217.885330,220.223495 218.570221,220.215088 
	C219.716919,223.678391 220.927322,227.122162 221.997070,230.609070 
	C224.227615,237.879623 226.383835,245.172974 228.796967,252.762207 
	C229.023346,253.067429 229.118744,253.164612 229.118744,253.164612 
	C229.118744,253.164612 228.977036,252.945404 228.977051,252.945404 
	C231.315659,236.803757 233.525543,220.642166 236.023560,204.525223 
	C239.614716,181.355484 243.386154,158.213440 247.179352,135.075760 
	C247.506165,133.082245 248.570282,131.209610 249.291931,129.280823 
	C249.807587,129.212479 250.323257,129.144150 250.838928,129.075806 
	C251.890396,131.520645 253.420563,133.871582 253.921249,136.424454 
	C261.001556,172.523849 267.946503,208.649826 274.905518,244.772964 
	C275.314026,246.893280 275.563324,249.044250 275.826477,251.764542 
	C275.200317,253.199463 274.634399,254.050797 274.068481,254.902130 
M251.396133,138.532761 
	C251.396133,138.532761 251.594269,138.571381 251.594269,138.571381 
	C251.594269,138.571381 251.426544,138.454391 251.396133,138.532761 
z"/>
<path fill="#0F0E0C" opacity="1.000000" stroke="none" 
	d="
M207.950836,173.403732 
	C206.406555,169.985718 204.533829,166.672348 203.402710,163.122681 
	C202.046356,158.866165 199.761368,156.902573 195.109741,156.954941 
	C179.445450,157.131317 163.776276,157.113724 148.112076,156.920029 
	C143.228287,156.859619 140.519424,158.741318 138.752869,163.309662 
	C129.799805,186.462479 120.580956,209.512329 111.530296,232.627640 
	C98.962799,264.724915 86.474426,296.853149 73.919670,328.955414 
	C71.990799,333.887482 72.206757,334.191467 77.621864,334.297546 
	C87.447983,334.490021 97.271790,334.800446 107.564148,335.120026 
	C105.673363,335.776123 103.320595,336.858917 100.955658,336.886169 
	C91.476311,336.995422 81.993347,336.747040 72.511375,336.694794 
	C68.532799,336.672882 68.031372,334.594879 69.232872,331.447906 
	C73.743492,319.633728 78.192505,307.795013 82.817375,296.025543 
	C100.353653,251.398911 118.030045,206.827042 135.420258,162.143707 
	C137.560532,156.644348 140.340240,153.648056 146.531525,153.665115 
	C162.836472,153.710083 179.142151,153.356064 195.448090,153.238419 
	C201.693451,153.193344 205.942703,155.840454 207.122589,162.407394 
	C207.592194,165.021042 208.317505,167.588745 208.828156,170.869843 
	C208.470215,172.176132 208.210526,172.789932 207.950836,173.403732 
z"/>
<path fill="#110F0E" opacity="1.000000" stroke="none" 
	d="
M442.117371,335.920959 
	C442.017883,318.034668 442.033386,300.398712 442.191467,282.764069 
	C442.303284,270.287323 442.632996,257.812622 442.816620,245.336304 
	C442.912445,238.829819 442.142090,237.966492 435.816406,237.953049 
	C413.500824,237.905594 391.184662,238.007080 368.869843,237.869141 
	C364.320892,237.841049 361.808350,239.435684 360.627533,243.946594 
	C359.367340,248.760544 357.541107,253.435181 355.807678,258.113434 
	C354.523987,261.577972 355.535706,263.086090 359.248474,263.154022 
	C371.563843,263.379364 383.878632,263.662201 396.190918,264.018219 
	C402.509064,264.200928 403.799774,265.629059 402.545349,271.020203 
	C401.352753,267.153259 398.417969,265.868378 394.508148,265.969055 
	C386.538086,266.174225 378.568115,266.400421 370.596619,266.526276 
	C360.648529,266.683319 350.698914,266.747955 340.096375,266.619080 
	C336.506622,265.594208 333.603424,264.634949 330.626678,264.050415 
	C326.097168,263.160980 321.516724,262.531189 316.957947,261.791107 
	C316.985382,261.415009 317.012848,261.038879 317.040314,260.662781 
	C318.362579,260.085266 319.684845,259.507751 321.007111,258.930206 
	C328.899963,259.933228 336.853973,260.608948 344.661682,262.067719 
	C349.025787,262.883087 351.343384,261.587402 352.738220,257.704987 
	C354.932129,251.598557 357.413788,245.577728 359.238281,239.363480 
	C360.220245,236.018875 361.861115,234.731277 365.180481,234.712387 
	C384.486115,234.602463 403.791107,234.337051 423.096771,234.283707 
	C429.741699,234.265335 436.387909,234.705750 443.493774,235.402496 
	C444.014862,269.808075 444.075714,303.747742 444.136566,337.687378 
	C443.522125,337.182220 442.907684,336.677032 442.117371,335.920959 
z"/>
<path fill="#110F0E" opacity="1.000000" stroke="none" 
	d="
M346.879761,152.166885 
	C347.357056,152.174164 347.834320,152.181458 348.784058,152.477081 
	C349.839630,154.138397 350.422791,155.511337 350.537415,156.912643 
	C345.576965,156.971924 341.079437,157.163712 336.594269,157.005035 
	C319.934937,156.415649 305.220306,161.742401 291.844421,171.358994 
	C286.076355,175.505920 285.267914,177.503738 287.132263,184.481445 
	C290.394745,196.691666 293.663055,208.900818 297.042908,221.078781 
	C297.855988,224.008423 299.115784,226.814087 300.170105,229.676758 
	C300.642181,229.861053 301.114258,230.045334 301.586334,230.229630 
	C311.547760,211.233307 324.140686,196.213089 348.007568,198.595245 
	C347.998077,199.921875 347.990936,200.884537 347.983765,201.847214 
	C327.214478,201.340256 314.009094,211.839478 306.093475,230.336563 
	C305.057495,232.757492 302.799683,234.655563 301.107758,236.795822 
	C299.440491,234.498535 297.008789,232.433105 296.230286,229.866287 
	C291.263245,213.489090 286.674622,196.997375 281.925659,180.553665 
	C280.915955,177.057343 281.790436,174.335205 284.903381,172.398560 
	C288.268921,170.304718 291.646484,168.230164 295.583466,165.918747 
	C296.432770,165.454956 296.717468,165.219635 297.002136,164.984299 
	C297.002136,164.984299 296.984375,165.018372 297.261108,164.879807 
	C298.364105,164.145233 299.190369,163.549210 300.016632,162.953186 
	C300.016632,162.953186 299.994507,162.988617 300.290100,162.920044 
	C301.395172,162.558777 302.204651,162.266083 303.014099,161.973373 
	C303.014099,161.973373 302.996765,162.012268 303.262085,161.877548 
	C304.352692,161.148239 305.177979,160.553650 306.003265,159.959045 
	C306.003265,159.959061 306.005280,160.007645 306.371124,159.965515 
	C309.495209,158.937637 312.253448,157.951904 315.011688,156.966171 
	C315.011688,156.966171 315.009796,157.010559 315.305237,156.927917 
	C316.405914,156.544083 317.211182,156.242874 318.016479,155.941681 
	C327.047913,154.957840 336.079346,153.973999 345.720947,152.849792 
	C346.515625,152.530182 346.698486,152.349350 346.879761,152.166885 
z"/>
<path fill="#0F0E0C" opacity="1.000000" stroke="none" 
	d="
M351.005981,156.884277 
	C350.422791,155.511337 349.839630,154.138397 349.142059,152.477753 
	C363.471375,152.366196 377.914825,152.572235 392.358917,152.710205 
	C407.623657,152.856049 422.889191,152.916595 438.154053,153.053513 
	C448.369843,153.145126 448.878937,153.630524 445.880615,163.418472 
	C442.523956,174.376221 438.836823,185.238510 434.999023,196.037689 
	C434.307281,197.984268 432.244507,200.806992 430.725098,200.864670 
	C423.385834,201.143280 416.015961,200.615128 408.459076,199.935059 
	C408.505798,199.029984 408.750366,198.562943 409.463257,198.069321 
	C415.091125,198.057770 420.251953,198.009262 425.409821,198.110168 
	C428.864685,198.177750 431.035126,196.753372 432.148407,193.419250 
	C435.257141,184.109238 438.628967,174.884705 441.605835,165.533752 
	C444.174774,157.464096 443.728577,157.044434 435.397614,157.030441 
	C407.267059,156.983170 379.136536,156.933212 351.005981,156.884277 
z"/>
<path fill="#0F0E0C" opacity="1.000000" stroke="none" 
	d="
M163.367722,212.827667 
	C164.710983,208.385269 165.745331,203.812927 167.534790,199.558197 
	C168.363144,197.588638 170.668671,194.958633 172.294937,194.965271 
	C173.935654,194.971985 176.288940,197.582367 177.081284,199.553909 
	C182.289810,212.513962 187.142715,225.616623 192.162613,238.653137 
	C192.842590,240.419006 193.807358,242.075226 194.640259,243.782227 
	C195.137634,243.801010 195.635010,243.819794 196.132385,243.838577 
	C197.872528,239.016510 199.612656,234.194443 201.646271,229.158386 
	C201.939728,228.944412 202.010880,229.010452 202.051178,229.352066 
	C202.391449,230.792404 202.691452,231.891144 202.991440,232.989868 
	C202.036880,237.149673 200.847275,241.273590 200.204437,245.481018 
	C199.717636,248.667145 199.928223,251.959839 199.549042,255.710983 
	C197.148315,256.438660 195.026978,256.660431 192.997055,256.538696 
	C192.640793,253.131027 192.702942,249.879349 191.656799,247.035355 
	C187.232208,235.006882 182.507996,223.087891 177.826447,211.155121 
	C176.351654,207.396011 174.668045,203.718811 173.080002,200.004135 
	C172.564713,200.031616 172.049408,200.059082 171.534119,200.086548 
	C169.330765,204.390121 167.127426,208.693680 164.535202,212.952866 
	C163.886810,212.881561 163.627274,212.854614 163.367722,212.827667 
z"/>
<path fill="#191817" opacity="1.000000" stroke="none" 
	d="
M320.572418,258.901062 
	C319.684845,259.507751 318.362579,260.085266 317.040314,260.662781 
	C317.012848,261.038879 316.985382,261.415009 316.957947,261.791107 
	C321.516724,262.531189 326.097168,263.160980 330.626678,264.050415 
	C333.603424,264.634949 336.506622,265.594208 339.670837,266.639893 
	C324.595245,267.280121 309.291565,267.666077 293.527527,268.077820 
	C292.287415,268.072632 291.507660,268.041656 290.504272,268.050903 
	C291.230164,264.615723 292.179688,261.140350 293.390228,257.227783 
	C294.442993,256.516785 295.234741,256.242981 296.026520,255.969193 
	C304.063599,256.936768 312.100647,257.904327 320.572418,258.901062 
z"/>
<path fill="#110F0E" opacity="1.000000" stroke="none" 
	d="
M350.767883,295.357849 
	C337.954010,296.990326 325.979675,293.594391 314.757690,287.006226 
	C313.896088,286.500366 313.079895,285.914703 312.205750,285.432983 
	C306.413452,282.241058 304.772491,282.893372 302.888092,289.115692 
	C299.028931,301.858643 295.139252,314.592560 291.347107,327.355438 
	C290.688263,329.572754 290.446594,331.914001 290.001587,334.618530 
	C289.152863,335.406921 288.314758,335.774841 287.238098,335.693817 
	C286.994385,334.442017 286.989258,333.639160 286.984131,332.836304 
	C287.035065,332.083740 287.085999,331.331177 287.296814,330.089539 
	C287.630249,329.049438 287.803772,328.498413 287.977295,327.947418 
	C288.189636,326.830200 288.401978,325.712982 288.889526,324.159180 
	C289.440277,323.132874 289.715851,322.543152 289.991455,321.953430 
	C289.991455,321.953430 289.998962,321.995636 290.000977,321.895905 
	C290.026367,321.565460 290.039459,321.334137 290.042206,321.102173 
	C290.222839,320.579010 290.403442,320.055878 290.904663,318.975830 
	C292.482513,314.594238 293.739777,310.769562 294.997009,306.944885 
	C294.984039,306.533203 294.971039,306.121552 295.102966,305.138428 
	C295.499054,304.031647 295.750214,303.496307 296.001343,302.960968 
	C296.001343,302.960968 296.000214,303.003052 296.156738,302.700623 
	C297.230927,298.646973 298.148621,294.895782 299.066315,291.144562 
	C303.762756,274.145935 304.463715,277.271820 315.746338,283.406189 
	C326.660645,289.340332 338.322388,292.941376 350.767883,295.357849 
z"/>
<path fill="#110F0E" opacity="1.000000" stroke="none" 
	d="
M261.161041,326.219543 
	C256.306580,322.612457 251.376816,319.401642 247.430161,315.255127 
	C245.729996,313.468872 245.190384,309.591309 245.655914,306.932098 
	C246.682922,301.065887 248.648132,295.359924 250.322693,289.615448 
	C250.576477,288.744812 251.324493,288.018219 252.389648,286.391663 
	C253.385086,288.190796 254.292404,289.297577 254.649338,290.559967 
	C257.547760,300.811432 260.449280,311.065399 263.044220,321.395355 
	C263.394653,322.790405 262.046082,324.612305 261.161041,326.219543 
M249.972122,303.755127 
	C248.353210,310.696228 249.321487,314.117828 253.838593,316.902893 
	C254.611298,317.379303 255.833344,317.857025 256.502716,317.559052 
	C257.133484,317.278259 257.773926,315.871063 257.610748,315.137115 
	C256.334625,309.397827 254.865753,303.701355 253.456375,297.991669 
	C252.986191,298.009949 252.516006,298.028198 252.045807,298.046478 
	C251.424164,299.703064 250.802505,301.359650 249.972122,303.755127 
z"/>
<path fill="#0F0E0C" opacity="1.000000" stroke="none" 
	d="
M110.253265,335.370422 
	C111.302116,335.055969 112.647018,334.795105 113.957092,334.914978 
	C118.781006,335.356201 121.040657,332.926697 122.629128,328.554596 
	C129.792618,308.837830 137.237854,289.223389 145.141693,269.318115 
	C146.193863,269.135010 146.685928,269.205811 147.177979,269.276642 
	C144.138519,278.562042 141.262802,287.905121 138.016937,297.117798 
	C134.206345,307.933289 130.074066,318.635437 126.081390,329.386810 
	C122.917953,337.905212 119.455498,339.288635 110.253265,335.370422 
z"/>
<path fill="#191817" opacity="1.000000" stroke="none" 
	d="
M444.376099,337.483429 
	C444.075714,303.747742 444.014862,269.808075 443.940247,235.391754 
	C444.608093,237.103546 445.871216,239.288849 445.883118,241.480942 
	C446.032104,268.887360 446.063293,296.294983 445.950958,323.701569 
	C445.932434,328.229279 445.081787,332.753571 444.376099,337.483429 
z"/>
<path fill="#0F0E0C" opacity="1.000000" stroke="none" 
	d="
M348.453796,201.868805 
	C347.990936,200.884537 347.998077,199.921875 348.416260,198.556000 
	C349.920990,198.142853 351.014648,198.132904 352.461365,198.233994 
	C355.512238,198.265671 358.210022,198.186310 361.380371,198.088867 
	C366.921539,198.070404 371.990112,198.070038 377.376587,198.179199 
	C379.439514,198.220291 381.184601,198.151871 383.292419,198.083633 
	C384.138641,198.099167 384.622101,198.114502 385.335510,198.188919 
	C386.345612,198.203598 387.125763,198.159225 388.346741,198.095016 
	C390.552399,198.082092 392.317261,198.088989 394.414001,198.206314 
	C396.801147,198.245377 398.856445,198.174011 401.260468,198.093872 
	C402.074127,198.094788 402.539093,198.104462 403.287842,198.247559 
	C404.702972,198.908997 405.834320,199.437027 406.965668,199.965042 
	C404.477051,200.626999 401.993317,201.839783 399.498993,201.862000 
	C382.641876,202.012253 365.782501,201.910553 348.453796,201.868805 
z"/>
<path fill="#110F0E" opacity="1.000000" stroke="none" 
	d="
M295.952209,255.596222 
	C295.234741,256.242981 294.442993,256.516785 293.351501,256.878510 
	C291.522339,252.577942 289.992920,248.189453 288.463470,243.800964 
	C287.803162,243.799164 287.142822,243.797348 286.482483,243.795547 
	C285.600372,245.938736 284.718262,248.081909 283.504883,250.661621 
	C282.108337,251.057739 281.043060,251.017334 279.977814,250.976929 
	C281.926239,244.529526 283.874664,238.082138 285.823059,231.634750 
	C286.330750,231.628098 286.838409,231.621445 287.346100,231.614792 
	C292.149261,238.707932 293.080200,247.335434 295.952209,255.596222 
z"/>
<path fill="#110F0E" opacity="1.000000" stroke="none" 
	d="
M203.744781,219.943985 
	C203.809387,219.497086 203.874008,219.050171 204.009003,218.166977 
	C204.101013,217.524643 204.108002,217.318069 204.100372,217.110931 
	C205.750107,210.389069 207.701538,203.722580 208.948959,196.926880 
	C209.858047,191.974274 209.838562,186.851242 210.562515,181.396255 
	C211.605545,180.986679 212.319138,180.985046 213.032715,180.983414 
	C213.185120,185.212326 214.165283,189.615417 213.319611,193.634308 
	C211.493912,202.310608 208.731033,210.789688 205.811646,219.670105 
	C204.762741,219.975174 204.253754,219.959579 203.744781,219.943985 
z"/>
<path fill="#191817" opacity="1.000000" stroke="none" 
	d="
M349.388489,335.218872 
	C350.287354,334.808380 351.581268,334.248688 352.868988,334.262604 
	C368.972260,334.437042 385.074585,334.694611 401.601135,334.987091 
	C399.065643,335.336273 396.104492,335.896393 393.147156,335.876862 
	C378.691101,335.781525 364.236053,335.531555 349.388489,335.218872 
z"/>
<path fill="#191817" opacity="1.000000" stroke="none" 
	d="
M147.359985,269.228912 
	C146.685928,269.205811 146.193863,269.135010 145.332581,269.016113 
	C146.845139,267.895050 148.710999,265.928772 150.611282,265.894897 
	C162.414505,265.684540 174.228134,265.800812 186.031021,266.098236 
	C187.871445,266.144592 189.674545,267.672241 191.611343,268.864868 
	C191.332687,269.169922 190.937592,269.125000 189.862213,268.900574 
	C188.211899,268.523682 187.243698,268.164490 186.271515,268.153381 
	C174.526352,268.018677 162.780640,267.903687 151.034973,267.893341 
	C149.990829,267.892426 148.945999,268.659515 147.901489,269.069916 
	C147.901489,269.069916 147.541992,269.181183 147.359985,269.228912 
z"/>
<path fill="#110F0E" opacity="1.000000" stroke="none" 
	d="
M402.091553,283.234863 
	C402.319519,283.271973 402.438232,283.584503 402.500305,283.907867 
	C404.504730,294.350281 403.322388,295.845184 392.619171,295.864105 
	C387.999512,295.872284 383.379333,295.564362 378.361206,295.295593 
	C381.698669,294.827850 385.426910,294.313599 389.171295,294.130219 
	C399.577759,293.620605 400.035248,293.298370 402.091553,283.234863 
z"/>
<path fill="#191817" opacity="1.000000" stroke="none" 
	d="
M279.848755,251.208633 
	C281.043060,251.017334 282.108337,251.057739 283.420624,251.030060 
	C283.145264,253.304977 283.210663,256.070618 281.922089,257.862762 
	C280.808960,259.410950 278.156616,259.852386 276.184692,260.783081 
	C275.479034,259.086517 274.773376,257.389984 274.068115,255.297791 
	C274.634399,254.050797 275.200317,253.199463 275.916931,252.068420 
	C277.284973,251.672607 278.502350,251.556473 279.848755,251.208633 
M281.494446,254.987061 
	C281.494446,254.987061 281.510803,255.009277 281.494446,254.987061 
z"/>
<path fill="#191817" opacity="1.000000" stroke="none" 
	d="
M192.905655,256.882233 
	C195.026978,256.660431 197.148315,256.438660 199.645599,256.094604 
	C201.838593,255.476852 203.655640,254.981384 205.759445,254.284332 
	C206.323853,254.934433 206.601486,255.786087 206.935181,256.981628 
	C203.990555,261.131104 199.747131,259.803802 195.193115,259.762665 
	C192.664597,258.663055 190.819534,257.817261 189.369278,256.964325 
	C190.811264,256.932190 191.858459,256.907196 192.905655,256.882233 
z"/>
<path fill="#2E2D28" opacity="1.000000" stroke="none" 
	d="
M148.378876,269.087341 
	C148.945999,268.659515 149.990829,267.892426 151.034973,267.893341 
	C162.780640,267.903687 174.526352,268.018677 186.271515,268.153381 
	C187.243698,268.164490 188.211899,268.523682 189.567474,268.851410 
	C176.254074,269.022736 162.555161,269.063751 148.378876,269.087341 
z"/>
<path fill="#0F0E0C" opacity="1.000000" stroke="none" 
	d="
M212.968170,180.623886 
	C212.319138,180.985046 211.605545,180.986679 210.538376,180.987518 
	C209.870880,179.103653 209.556976,177.220596 209.412415,175.138748 
	C210.689026,176.714752 211.796310,178.489548 212.968170,180.623886 
z"/>
<path fill="#191817" opacity="1.000000" stroke="none" 
	d="
M294.757019,307.200623 
	C293.739777,310.769562 292.482513,314.594238 291.020416,318.724243 
	C292.049377,315.171814 293.283203,311.314117 294.757019,307.200623 
z"/>
<path fill="#191817" opacity="1.000000" stroke="none" 
	d="
M298.930054,291.473755 
	C298.148621,294.895782 297.230927,298.646973 296.138184,302.710632 
	C296.906708,299.283020 297.850220,295.542969 298.930054,291.473755 
z"/>
<path fill="#191817" opacity="1.000000" stroke="none" 
	d="
M403.324280,335.210724 
	C405.109985,334.988068 407.225403,334.913055 409.675690,334.981903 
	C407.891693,335.203308 405.772827,335.280823 403.324280,335.210724 
z"/>
<path fill="#110F0E" opacity="1.000000" stroke="none" 
	d="
M407.229309,199.966675 
	C405.834320,199.437027 404.702972,198.908997 403.612244,198.134674 
	C405.433533,197.957550 407.214233,198.026733 408.994934,198.095917 
	C408.750366,198.562943 408.505798,199.029984 408.140778,199.730255 
	C407.844543,199.965088 407.668762,199.966690 407.229309,199.966675 
z"/>
<path fill="#191817" opacity="1.000000" stroke="none" 
	d="
M314.616028,156.972107 
	C312.253448,157.951904 309.495209,158.937637 306.351685,159.950897 
	C308.717743,158.978287 311.469086,157.978149 314.616028,156.972107 
z"/>
<path fill="#0F0E0C" opacity="1.000000" stroke="none" 
	d="
M201.904053,228.911484 
	C201.925491,227.854675 201.982605,226.830780 202.332520,225.559219 
	C203.401581,225.861252 204.177841,226.410965 204.954102,226.960663 
	C204.700363,227.471802 204.446640,227.982941 203.746338,228.750641 
	C202.870132,229.008301 202.440506,229.009369 202.010880,229.010452 
	C202.010880,229.010452 201.939728,228.944412 201.904053,228.911484 
z"/>
<path fill="#0F0E0C" opacity="1.000000" stroke="none" 
	d="
M203.610687,220.232544 
	C204.253754,219.959579 204.762741,219.975174 205.652618,220.003189 
	C205.784943,220.820755 205.536346,221.625900 204.792175,222.716324 
	C203.798660,222.994064 203.300720,222.986526 202.802780,222.978973 
	C203.027374,222.159698 203.251968,221.340393 203.610687,220.232544 
z"/>
<path fill="#110F0E" opacity="1.000000" stroke="none" 
	d="
M202.693710,223.227219 
	C203.300720,222.986526 203.798660,222.994064 204.669876,223.008118 
	C205.025803,224.067627 205.008453,225.120621 204.972595,226.567139 
	C204.177841,226.410965 203.401581,225.861252 202.375793,225.175476 
	C202.279068,224.518097 202.431854,223.996780 202.693710,223.227219 
z"/>
<path fill="#110F0E" opacity="1.000000" stroke="none" 
	d="
M202.051178,229.352066 
	C202.440506,229.009369 202.870132,229.008301 203.621124,229.007050 
	C203.699661,230.118759 203.456848,231.230667 203.102737,232.666214 
	C202.691452,231.891144 202.391449,230.792404 202.051178,229.352066 
z"/>
<path fill="#191817" opacity="1.000000" stroke="none" 
	d="
M344.237549,335.179840 
	C344.833923,335.023438 345.673981,334.951447 346.759338,334.962158 
	C346.163513,335.118011 345.322388,335.191132 344.237549,335.179840 
z"/>
<path fill="#110F0E" opacity="1.000000" stroke="none" 
	d="
M208.173340,173.518707 
	C208.210526,172.789932 208.470215,172.176132 208.876953,171.268158 
	C209.265274,171.835526 209.506531,172.697067 209.758011,173.903015 
	C209.310776,174.042847 208.853302,173.838257 208.173340,173.518707 
z"/>
<path fill="#191817" opacity="1.000000" stroke="none" 
	d="
M299.716919,163.049408 
	C299.190369,163.549210 298.364105,164.145233 297.255371,164.861298 
	C297.787689,164.369461 298.602448,163.757553 299.716919,163.049408 
z"/>
<path fill="#191817" opacity="1.000000" stroke="none" 
	d="
M305.701263,160.044754 
	C305.177979,160.553650 304.352692,161.148239 303.244934,161.864929 
	C303.774719,161.368179 304.586975,160.749313 305.701263,160.044754 
z"/>
<path fill="#110F0E" opacity="1.000000" stroke="none" 
	d="
M402.199310,279.151062 
	C402.310699,279.510101 402.338745,280.071167 402.310181,280.837830 
	C402.207703,280.479980 402.161835,279.916534 402.199310,279.151062 
z"/>
<path fill="#191817" opacity="1.000000" stroke="none" 
	d="
M287.858459,328.176239 
	C287.803772,328.498413 287.630249,329.049438 287.327576,329.713623 
	C287.378815,329.352905 287.559235,328.878967 287.858459,328.176239 
z"/>
<path fill="#110F0E" opacity="1.000000" stroke="none" 
	d="
M374.836121,295.118591 
	C374.483398,295.233307 373.928070,295.276154 373.167267,295.269165 
	C373.519012,295.161774 374.076263,295.104248 374.836121,295.118591 
z"/>
<path fill="#191817" opacity="1.000000" stroke="none" 
	d="
M289.823364,322.188232 
	C289.715851,322.543152 289.440277,323.132874 289.002991,323.837097 
	C289.112610,323.442078 289.383972,322.932526 289.823364,322.188232 
z"/>
<path fill="#191817" opacity="1.000000" stroke="none" 
	d="
M286.858948,333.094574 
	C286.989258,333.639160 286.994385,334.442017 286.998169,335.645142 
	C286.909119,335.147919 286.821442,334.250366 286.858948,333.094574 
z"/>
<path fill="#191817" opacity="1.000000" stroke="none" 
	d="
M317.696320,155.999115 
	C317.211182,156.242874 316.405914,156.544083 315.285828,156.917053 
	C315.772736,156.678070 316.574463,156.367325 317.696320,155.999115 
z"/>
<path fill="#191817" opacity="1.000000" stroke="none" 
	d="
M302.690979,162.015533 
	C302.204651,162.266083 301.395172,162.558777 300.269470,162.923218 
	C300.758087,162.682526 301.562958,162.370102 302.690979,162.015533 
z"/>
<path fill="#191817" opacity="1.000000" stroke="none" 
	d="
M295.836365,303.207642 
	C295.750214,303.496307 295.499054,304.031647 295.106506,304.829529 
	C295.200562,304.546143 295.436005,304.000214 295.836365,303.207642 
z"/>
<path fill="#110F0E" opacity="1.000000" stroke="none" 
	d="
M354.008148,295.504974 
	C353.899200,295.573090 353.699188,295.582062 353.199646,295.575165 
	C353.239105,295.521454 353.578064,295.483643 354.008148,295.504974 
z"/>
<path fill="#191817" opacity="1.000000" stroke="none" 
	d="
M290.024109,321.334412 
	C290.039459,321.334137 290.026367,321.565460 289.989197,321.913818 
	C289.975372,322.031464 290.006012,321.566620 290.024109,321.334412 
z"/>
<path fill="#0F0E0C" opacity="1.000000" stroke="none" 
	d="
M346.743378,152.302704 
	C346.698486,152.349350 346.515625,152.530182 346.191956,152.844269 
	C346.237640,152.799057 346.422394,152.618851 346.743378,152.302704 
z"/>
<path fill="#191817" opacity="1.000000" stroke="none" 
	d="
M296.768738,165.134827 
	C296.717468,165.219635 296.432770,165.454956 295.919250,165.854568 
	C295.972046,165.774338 296.253662,165.529846 296.768738,165.134827 
z"/>
<path fill="#110F0E" opacity="1.000000" stroke="none" 
	d="
M419.137360,335.168762 
	C419.019135,335.138000 419.500061,335.114197 419.739563,335.129028 
	C419.979065,335.143829 419.620422,335.211884 419.620422,335.211884 
	C419.620422,335.211884 419.255585,335.199493 419.137360,335.168762 
z"/>
<path fill="#110F0E" opacity="1.000000" stroke="none" 
	d="
M163.151184,213.046844 
	C163.627274,212.854614 163.886810,212.881561 164.537079,213.362839 
	C161.531082,224.410080 158.195084,235.023026 154.710556,245.586960 
	C153.105576,250.452728 152.094742,256.044281 144.950607,256.340393 
	C145.656723,256.606689 146.362823,256.872986 147.059357,257.488770 
	C147.021744,258.535614 146.993713,259.232941 146.965683,259.930298 
	C143.953156,259.970917 140.940613,260.011566 137.156616,259.884338 
	C133.494614,258.721863 130.604080,257.727234 126.872314,256.443146 
	C129.977020,255.705734 132.053482,255.212555 134.845535,254.549408 
	C132.283066,253.860535 130.564621,253.398560 128.846191,252.936584 
	C132.145462,252.711700 135.462677,252.152985 138.740387,252.329208 
	C146.310242,252.736160 150.205780,248.938782 152.292480,242.038406 
	C154.636444,234.287216 157.434952,226.670746 160.149704,219.036224 
	C160.861053,217.035675 161.994858,215.185349 163.151184,213.046844 
z"/>
<path fill="#191817" opacity="1.000000" stroke="none" 
	d="
M147.437012,259.954468 
	C146.993713,259.232941 147.021744,258.535614 147.428223,257.447449 
	C158.197708,257.055206 168.588745,257.053772 178.982788,257.415253 
	C178.999878,258.502899 179.013962,259.227600 179.028046,259.952332 
	C168.654800,259.961090 158.281570,259.969879 147.437012,259.954468 
z"/>
<path fill="#191817" opacity="1.000000" stroke="none" 
	d="
M128.435364,252.943634 
	C130.564621,253.398560 132.283066,253.860535 134.845535,254.549408 
	C132.053482,255.212555 129.977020,255.705734 126.872314,256.443146 
	C130.604080,257.727234 133.494614,258.721863 136.705215,259.898773 
	C132.545258,260.004303 128.047516,260.129486 123.594948,259.739349 
	C122.071655,259.605896 120.661560,258.180481 119.199753,257.345337 
	C120.488464,256.047180 121.579155,254.367584 123.125145,253.565018 
	C124.495338,252.853729 126.371651,253.117401 128.435364,252.943634 
z"/>
<path fill="#0F0E0C" opacity="1.000000" stroke="none" 
	d="
M179.492203,259.965088 
	C179.013962,259.227600 178.999878,258.502899 179.324081,257.322205 
	C182.766403,256.901306 185.870453,256.936371 188.974487,256.971466 
	C190.819534,257.817261 192.664597,258.663055 194.741394,259.742310 
	C189.967529,259.976440 184.961945,259.977142 179.492203,259.965088 
z"/>
<path fill="#191817" opacity="1.000000" stroke="none" 
	d="
M253.778885,223.795395 
	C251.846695,224.045639 249.846649,224.012970 247.413086,223.984314 
	C247.897842,222.812469 245.691528,218.997650 249.921432,220.800293 
	C249.977448,221.029190 249.984146,220.984238 249.984146,220.984238 
	C251.226440,221.826981 252.468719,222.669739 253.778885,223.795395 
z"/>
<path fill="#0F0E0C" opacity="1.000000" stroke="none" 
	d="
M204.082596,217.316711 
	C204.108002,217.318069 204.101013,217.524643 204.065613,217.833038 
	C204.051865,217.935394 204.064835,217.522507 204.082596,217.316711 
z"/>
<path fill="#2E2D28" opacity="1.000000" stroke="none" 
	d="
M251.411346,138.493576 
	C251.426544,138.454391 251.594269,138.571381 251.594269,138.571381 
	C251.594269,138.571381 251.396133,138.532761 251.411346,138.493576 
z"/>
<path fill="#2E2D28" opacity="1.000000" stroke="none" 
	d="
M228.986725,252.963135 
	C228.977036,252.945404 229.118744,253.164612 229.118744,253.164612 
	C229.118744,253.164612 229.023346,253.067429 228.991272,253.020721 
	C228.959183,252.974014 228.996429,252.980865 228.986725,252.963135 
z"/>
<path fill="#2E2E28" opacity="1.000000" stroke="none" 
	d="
M409.463257,198.069305 
	C407.214233,198.026733 405.433533,197.957550 403.328430,198.001251 
	C402.539093,198.104462 402.074127,198.094788 400.930481,197.980270 
	C398.195251,197.948898 396.138672,198.022385 394.082123,198.095886 
	C392.317261,198.088989 390.552399,198.082092 388.119415,198.019775 
	C386.669373,198.019516 385.887482,198.074677 385.105560,198.129852 
	C384.622101,198.114502 384.138641,198.099167 382.975952,197.975174 
	C380.550751,197.934235 378.804718,198.001938 377.058716,198.069656 
	C371.990112,198.070038 366.921539,198.070404 361.028351,197.967987 
	C357.505280,197.951126 354.806793,198.037033 352.108307,198.122955 
	C351.014648,198.132904 349.920990,198.142853 348.418640,198.192047 
	C324.140686,196.213089 311.547760,211.233307 301.586334,230.229630 
	C301.114258,230.045334 300.642181,229.861053 300.170105,229.676758 
	C299.115784,226.814087 297.855988,224.008423 297.042908,221.078781 
	C293.663055,208.900818 290.394745,196.691666 287.132263,184.481445 
	C285.267914,177.503738 286.076355,175.505920 291.844421,171.358994 
	C305.220306,161.742401 319.934937,156.415649 336.594269,157.005035 
	C341.079437,157.163712 345.576965,156.971924 350.537415,156.912643 
	C379.136536,156.933212 407.267059,156.983170 435.397614,157.030441 
	C443.728577,157.044434 444.174774,157.464096 441.605835,165.533752 
	C438.628967,174.884705 435.257141,184.109238 432.148407,193.419250 
	C431.035126,196.753372 428.864685,198.177750 425.409821,198.110168 
	C420.251953,198.009262 415.091125,198.057770 409.463257,198.069305 
z"/>
<path fill="#ffffff" opacity="1.000000" stroke="none" 
	d="
M189.369278,256.964325 
	C185.870453,256.936371 182.766403,256.901306 179.321075,256.959290 
	C168.588745,257.053772 158.197708,257.055206 147.437805,257.097961 
	C146.362823,256.872986 145.656723,256.606689 144.950607,256.340393 
	C152.094742,256.044281 153.105576,250.452728 154.710556,245.586960 
	C158.195084,235.023026 161.531082,224.410080 164.925934,213.407211 
	C167.127426,208.693680 169.330765,204.390121 171.534119,200.086548 
	C172.049408,200.059082 172.564713,200.031616 173.080002,200.004135 
	C174.668045,203.718811 176.351654,207.396011 177.826447,211.155121 
	C182.507996,223.087891 187.232208,235.006882 191.656799,247.035355 
	C192.702942,249.879349 192.640793,253.131027 192.997055,256.538696 
	C191.858459,256.907196 190.811264,256.932190 189.369278,256.964325 
z"/>
<path fill="#2E2D28" opacity="1.000000" stroke="none" 
	d="
M250.076477,303.385681 
	C250.802505,301.359650 251.424164,299.703064 252.045807,298.046478 
	C252.516006,298.028198 252.986191,298.009949 253.456375,297.991669 
	C254.865753,303.701355 256.334625,309.397827 257.610748,315.137115 
	C257.773926,315.871063 257.133484,317.278259 256.502716,317.559052 
	C255.833344,317.857025 254.611298,317.379303 253.838593,316.902893 
	C249.321487,314.117828 248.353210,310.696228 250.076477,303.385681 
z"/>
<path fill="#110F0E" opacity="1.000000" stroke="none" 
	d="
M352.461365,198.233994 
	C354.806793,198.037033 357.505280,197.951126 360.555786,197.986084 
	C358.210022,198.186310 355.512238,198.265671 352.461365,198.233994 
z"/>
<path fill="#110F0E" opacity="1.000000" stroke="none" 
	d="
M394.414001,198.206299 
	C396.138672,198.022385 398.195251,197.948898 400.581787,197.989014 
	C398.856445,198.174011 396.801147,198.245377 394.414001,198.206299 
z"/>
<path fill="#110F0E" opacity="1.000000" stroke="none" 
	d="
M377.376587,198.179199 
	C378.804718,198.001938 380.550751,197.934235 382.613220,197.974991 
	C381.184601,198.151871 379.439514,198.220291 377.376587,198.179199 
z"/>
<path fill="#110F0E" opacity="1.000000" stroke="none" 
	d="
M385.335510,198.188904 
	C385.887482,198.074677 386.669373,198.019516 387.678589,198.039597 
	C387.125763,198.159225 386.345612,198.203598 385.335510,198.188904 
z"/>
<path fill="#110F0E" opacity="1.000000" stroke="none" 
	d="
M281.502625,254.998169 
	C281.510803,255.009277 281.494446,254.987061 281.502625,254.998169 
z"/>
<path fill="#2E2D28" opacity="1.000000" stroke="none" 
	d="
M249.992218,220.991486 
	C249.984146,220.984238 249.977448,221.029190 249.996124,221.021988 
	C250.014816,221.014786 250.000305,220.998734 249.992218,220.991486 
z"/>
</svg>